<svg width="100" height="64" viewBox="0 0 100 64" fill="none" xmlns="http://www.w3.org/2000/svg">
<path d="M86.2765 8.22518C84.4039 8.04697 82.5496 8.16281 80.7044 8.45685C74.8856 9.39243 69.3957 11.3794 63.9697 13.5357C60.5168 14.9079 57.1644 16.494 53.8577 18.1691C51.9485 19.1314 50.0394 20.1027 48.249 21.2699C50.7428 20.3611 53.2091 19.4522 55.7303 18.6503C59.9779 17.2959 64.2529 16.0841 68.738 15.7812C70.437 15.6653 72.127 15.7366 73.7347 16.3514C76.1279 17.2692 76.7308 19.0245 75.3789 21.163C74.5476 22.4817 73.4606 23.5866 72.2914 24.6113C69.752 26.8478 66.9659 28.7457 64.0793 30.5278C60.864 32.5059 57.5846 34.377 54.1957 36.0522C53.1452 36.569 52.113 37.1125 51.0716 37.6471C51.099 37.7006 51.1173 37.7541 51.1447 37.8075C53.1909 37.0858 55.2644 36.4353 57.274 35.6423C64.0976 32.9425 70.7294 29.8684 77.014 26.0815C80.4395 24.0143 83.7553 21.8046 86.6693 19.0691C88.0486 17.7682 89.3366 16.3871 90.1313 14.6495C91.6568 11.2814 90.0217 8.5905 86.2765 8.22518Z" fill="#014681"/>
<path d="M68.2359 29.4036C70.1267 28.1116 71.7436 26.8642 73.1868 25.5811C74.7032 24.2445 75.7263 23.0951 76.5118 21.8477C77.6171 20.1012 77.5075 18.7379 77.2243 17.9004C76.9412 17.0628 76.183 15.9134 74.2282 15.156C72.9859 14.6837 71.6157 14.4521 70.0262 14.4521C69.5969 14.4521 69.1493 14.4699 68.656 14.5055C66.756 14.6392 64.9017 14.9243 63.1113 15.2986C63.5681 15.1025 64.0248 14.9243 64.4815 14.7372C69.6335 12.6878 75.1873 10.6652 80.933 9.7385C82.2027 9.53356 83.3537 9.43555 84.4772 9.43555C85.0436 9.43555 85.6099 9.46228 86.158 9.51574C87.5465 9.6494 88.5696 10.1662 89.0537 10.977C89.5378 11.779 89.4922 12.9017 88.9349 14.1402C88.2224 15.7263 86.9893 17.0093 85.7652 18.1588C82.7325 21.019 79.2979 23.2199 76.3383 25.0019C73.7897 26.5167 71.1041 27.9869 68.2359 29.4036Z" fill="#014681"/>
<path d="M63.403 7.96588C65.7689 7.97479 67.5776 6.21054 67.541 3.9295C67.5045 1.693 65.7232 -0.00887552 63.4487 3.48269e-05C61.1377 0.00894517 59.3381 1.76428 59.3655 4.00078C59.3838 6.23727 61.1377 7.95697 63.403 7.96588Z" fill="#014681"/>
<path d="M63.4118 6.67481C61.8772 6.6659 60.6988 5.50756 60.6897 3.98389C60.6805 3.26215 60.9546 2.58497 61.457 2.08599C61.9685 1.5781 62.681 1.29297 63.4575 1.29297C65.0104 1.29297 66.1979 2.43349 66.2253 3.95716C66.2344 4.70563 65.9604 5.39173 65.4579 5.89071C64.9373 6.39859 64.2248 6.68373 63.4392 6.68373C63.4209 6.67482 63.4118 6.67481 63.4118 6.67481Z" fill="#014681"/>
<path d="M67.6964 21.3933C67.5594 21.4378 58.443 25.0019 53.9214 26.5167C49.5093 27.9869 45.0516 29.2789 40.4021 29.8224C38.5752 30.0363 36.7208 30.1878 34.9487 29.5195C33.6059 29.0205 33.1127 27.9869 33.478 26.6325C33.679 25.8841 34.0444 25.2158 34.492 24.5743C35.6247 22.9347 37.0497 21.5536 38.5569 20.2527C42.9963 16.448 47.9473 13.3472 53.017 10.4246C53.5834 10.0949 54.168 9.75634 54.7435 9.41775C54.8714 9.34647 54.9992 9.26627 55.1271 9.19499L56.4151 8.35742L52.2314 10.3801C46.5314 13.1245 40.9502 16.0738 35.5333 19.3171C32.7929 20.9567 30.1348 22.712 27.5405 24.5653C25.0194 26.3563 22.617 28.2899 20.516 30.5442C19.5386 31.5956 18.6434 32.7094 18.1775 34.0816C17.5564 35.8904 18.2049 37.022 20.0958 37.4408C22.279 37.9309 24.4439 37.5834 26.5905 37.1913C34.6199 35.7211 42.1559 32.7896 49.6555 29.7779C53.5742 28.2097 57.4017 26.4187 61.2199 24.6099C63.4122 23.5941 65.5497 22.4714 67.6964 21.3933Z" fill="#014681"/>
<path d="M22.3982 36.3998C21.6765 36.3998 21.028 36.3285 20.3977 36.1949C19.8496 36.0701 19.4842 35.883 19.3563 35.6692C19.2284 35.4464 19.2559 35.0365 19.4385 34.5108C19.8496 33.3168 20.6717 32.3278 21.503 31.4368C23.2751 29.5299 25.44 27.6855 28.3265 25.6272C31.0487 23.6937 33.6338 21.9918 36.228 20.4414C36.3833 20.3434 36.5477 20.2543 36.7121 20.1562C35.3054 21.4483 34.2549 22.6155 33.3963 23.863C32.8025 24.7184 32.4189 25.5025 32.1996 26.3133C31.6515 28.3092 32.5285 30.0111 34.4741 30.7328C35.4972 31.116 36.6208 31.3031 37.9088 31.3031C38.8131 31.3031 39.7174 31.214 40.5578 31.116C41.8184 30.9645 43.0698 30.7685 44.2939 30.5279C38.1919 32.8802 32.4097 34.8405 26.3535 35.9454C25.0198 36.1771 23.7044 36.3998 22.3982 36.3998Z" fill="#014681"/>
<path d="M67.6966 21.3943C67.6787 21.3409 67.7144 21.4478 67.6966 21.3943V21.3943Z" fill="#014681"/>
<path d="M67.6966 21.3943C67.6787 21.3409 67.7144 21.4478 67.6966 21.3943V21.3943Z" fill="#014681"/>
<path d="M64.5824 45.2647C63.2579 45.3003 61.9333 45.2914 60.6088 45.2647C60.1247 45.2558 59.9785 45.4162 59.9785 45.8795C59.9877 51.5465 59.9968 57.2135 59.9785 62.8804C59.9785 63.4418 60.1795 63.5576 60.7002 63.5487C61.9699 63.522 63.2487 63.5131 64.5184 63.5487C65.1213 63.5665 65.3131 63.3883 65.3131 62.7824C65.2857 59.9846 65.2949 57.1867 65.2949 54.3889C65.2949 54.3889 65.2949 54.3889 65.304 54.3889C65.304 51.591 65.2949 48.7932 65.3131 45.9953C65.3223 45.4607 65.1853 45.2469 64.5824 45.2647Z" fill="#014681"/>
<path d="M63.988 62.2553C63.5404 62.2464 63.0836 62.2464 62.6269 62.2464C62.2067 62.2464 61.7591 62.2464 61.3115 62.2553C61.3207 57.6754 61.3207 52.6589 61.3115 46.582C61.8322 46.5909 62.2889 46.591 62.7182 46.591C63.1658 46.591 63.586 46.5909 63.988 46.582C63.9788 48.471 63.9788 50.3778 63.9788 52.2312C63.9788 52.5698 63.9788 52.9173 63.9788 53.2559L63.9697 54.4053C63.9697 55.1449 63.9697 55.8755 63.9697 56.6151C63.9697 58.4595 63.9697 60.3663 63.988 62.2553Z" fill="#014681"/>
<path d="M62.6817 37.1642C61.1289 37.1821 59.8317 38.4652 59.8409 39.9799C59.85 41.4947 61.1563 42.7599 62.7091 42.751C64.2803 42.751 65.5774 41.4947 65.5957 39.9888C65.614 38.4562 64.2712 37.1464 62.6817 37.1642Z" fill="#014681"/>
<path d="M62.7095 41.4598C61.8874 41.4598 61.184 40.7737 61.1749 39.9629C61.1658 39.1699 61.8874 38.4659 62.7095 38.457H62.7278C63.1297 38.457 63.5316 38.6263 63.8331 38.9204C64.1345 39.2144 64.2898 39.5886 64.2898 39.9718C64.2624 40.7737 63.5499 41.4598 62.7095 41.4598Z" fill="#014681"/>
<path d="M74.7032 37.2198C73.3787 37.2643 72.0542 37.2554 70.7297 37.2198C70.1999 37.2109 70.0628 37.398 70.0628 37.8791C70.072 46.2281 70.072 54.5682 70.0537 62.9172C70.0537 63.4429 70.2638 63.5588 70.7571 63.5499C71.9354 63.5231 73.1138 63.5409 74.2831 63.5499C75.3609 63.5499 75.3609 63.5499 75.3609 62.5252C75.3609 58.4799 75.3609 54.4435 75.3609 50.3982C75.3609 50.3982 75.3609 50.3982 75.3518 50.3982C75.3518 46.237 75.3427 42.0759 75.3609 37.9148C75.3792 37.4158 75.2787 37.202 74.7032 37.2198Z" fill="#014681"/>
<path d="M73.3233 62.2564C72.9305 62.2564 72.5377 62.2564 72.1449 62.2564C71.8709 62.2564 71.6242 62.2564 71.3867 62.2564C71.3959 54.5757 71.405 46.601 71.3867 38.5371C71.8709 38.546 72.3276 38.546 72.766 38.546C73.2136 38.546 73.6338 38.546 74.0449 38.5371C74.0358 41.531 74.0358 44.5605 74.0358 47.492V51.6977H74.0449V62.2564C73.8074 62.2564 73.5608 62.2564 73.3233 62.2564Z" fill="#014681"/>
<path d="M15.6202 45.4962C15.3462 45.3091 15.1178 45.3804 14.9077 45.3804C12.7245 45.3715 10.5414 45.3625 8.35819 45.3804C7.87405 45.3804 7.69136 45.2289 7.76444 44.7656C7.89232 43.9013 8.2029 43.1528 8.97935 42.6538C9.58223 42.2617 10.2582 42.1637 10.9433 42.1905C11.4731 42.2172 11.6101 42.0212 11.601 41.5311C11.5644 40.4529 11.5736 39.3748 11.601 38.3056C11.6101 37.8779 11.4366 37.7086 11.0072 37.6907C7.16155 37.4858 3.58078 39.1253 2.63991 43.5894C2.52116 44.1686 2.74039 44.9348 2.27452 45.2824C1.82693 45.6209 1.08702 45.3804 0.484135 45.3804C0.0639413 45.3804 0 45.5675 0 45.9061C0.0182693 46.6456 5.57398e-07 47.3852 0.00913519 48.1337C0.00913519 49.595 0.00913293 49.6395 1.52548 49.5861C2.25625 49.5593 2.47549 49.7464 2.47549 50.4949C2.43895 54.6115 2.46635 58.7192 2.44808 62.8357C2.44808 63.3882 2.57597 63.602 3.18799 63.5753C4.43943 63.5307 5.69087 63.5307 6.94232 63.5753C7.61828 63.602 7.81011 63.406 7.80098 62.7466C7.76444 58.6122 7.80098 54.4689 7.76444 50.3345C7.76444 49.7197 7.94713 49.5682 8.55002 49.5861C9.67358 49.6306 10.8063 49.595 11.9298 49.595C12.2404 49.595 12.4962 49.5771 12.6515 49.2475C13.3274 47.7773 14.4236 46.6278 15.6202 45.4962Z" fill="#014681"/>
<path d="M6.4491 62.2487C5.99236 62.2398 5.5265 62.2309 5.0515 62.2309C4.6313 62.2309 4.19284 62.2398 3.75438 62.2487C3.76351 60.7428 3.76351 59.2192 3.76351 57.74C3.76351 55.361 3.76351 52.9106 3.78178 50.4959C3.79092 50.0326 3.73611 49.3554 3.2063 48.8386C2.63995 48.2773 1.87264 48.2773 1.62601 48.2773C1.5712 48.2773 1.51639 48.2773 1.46158 48.2773C1.41591 48.2773 1.3611 48.2773 1.31543 48.2862C1.31543 48.2327 1.31543 48.1703 1.31543 48.1169C1.31543 47.8763 1.31543 47.6446 1.31543 47.404C1.31543 47.1813 1.31543 46.9585 1.31543 46.7358C1.39764 46.7447 1.48899 46.7447 1.58033 46.7447C2.17408 46.7447 2.66736 46.5932 3.06928 46.2903C3.88226 45.6754 3.8914 44.7577 3.90053 44.2141C3.90053 44.0805 3.90053 43.9112 3.9188 43.8399C4.80486 39.661 8.22121 38.9838 10.2491 38.957C10.24 39.6699 10.24 40.3114 10.2491 40.9084C9.49093 40.9708 8.8241 41.1935 8.23035 41.5767C7.22554 42.2271 6.63178 43.2162 6.43996 44.5884C6.34861 45.1943 6.48564 45.7022 6.83275 46.0942C7.17987 46.4863 7.68227 46.6823 8.33083 46.6823H8.35823C9.20775 46.6734 10.103 46.6734 11.1717 46.6734C11.6832 46.6734 12.1948 46.6734 12.7063 46.6734C12.3044 47.1724 11.939 47.7159 11.6284 48.2951C11.327 48.2951 11.0255 48.2951 10.715 48.304C10.4135 48.304 10.1212 48.3129 9.81977 48.3129C9.33564 48.3129 8.93372 48.304 8.56833 48.2951C8.51352 48.2951 8.45871 48.2951 8.41304 48.2951C8.18468 48.2951 7.49044 48.2951 6.9515 48.8208C6.45823 49.302 6.40342 49.9257 6.41255 50.3445C6.43082 52.376 6.43083 54.4432 6.43083 56.448C6.43996 58.337 6.43996 60.3062 6.4491 62.2487Z" fill="#014681"/>
<path d="M23.311 44.8359C21.4567 44.8805 19.3009 45.5577 17.3552 46.9566C12.9706 50.1198 12.2764 56.856 16.0398 60.6964C18.8624 63.5833 22.361 64.5545 26.3163 63.6813C31.5413 62.5319 34.6745 58.1302 34.0077 53.0513C33.3956 48.3644 29.0476 44.8448 23.311 44.8359ZM23.7951 59.5915C21.0365 59.5736 18.8533 57.3104 18.8533 54.468C18.8533 51.5009 21.0548 49.1842 23.8682 49.1931C26.6451 49.202 28.7826 51.4831 28.7918 54.468C28.7918 57.355 26.5995 59.6093 23.7951 59.5915Z" fill="#014681"/>
<path d="M23.6038 62.7022C21.1009 62.7022 18.8812 61.7309 16.9995 59.8063C15.4923 58.2737 14.7523 56.0729 14.9533 53.774C15.1634 51.4127 16.3235 49.3099 18.1413 48.0001C19.7307 46.8596 21.6125 46.1735 23.3298 46.1289C28.299 46.1467 32.1538 49.0604 32.7019 53.2215C33.2774 57.65 30.537 61.4369 26.0336 62.4259C25.1932 62.613 24.3802 62.7022 23.6038 62.7022ZM23.8596 47.9021C20.3153 47.9021 17.5293 50.789 17.5293 54.469C17.5293 58.0509 20.2788 60.8666 23.7865 60.8844H23.823C25.4764 60.8844 27.0384 60.2518 28.1985 59.1113C29.4317 57.8995 30.1168 56.2511 30.1077 54.4601C30.0985 50.789 27.3581 47.9021 23.8596 47.8932V47.9021Z" fill="#014681"/>
<path d="M56.014 57.303C54.5159 57.3208 53.0178 57.3208 51.5288 57.303C51.1361 57.2941 50.9351 57.4723 50.6976 57.7574C49.5649 59.1564 48.0394 59.8157 46.2399 59.5662C43.0336 59.1296 41.1062 56.3229 41.7913 53.231C42.6134 49.5332 47.1716 47.8402 49.8937 50.3708C50.9534 51.3509 51.9582 51.6004 53.2462 51.4935C53.3923 51.4846 53.5385 51.4935 53.6846 51.4935C54.4702 51.4935 55.2558 51.4757 56.0414 51.5024C56.4707 51.5113 56.6168 51.4222 56.4524 50.9767C56.1144 50.0678 55.7125 49.2035 55.1005 48.4461C53.3649 46.2809 51.0173 45.1849 48.2769 44.9355C43.9836 44.5434 40.3024 45.7107 37.8086 49.3728C35.3149 53.035 35.8812 58.0693 39.1423 61.0721C42.0836 63.7987 45.637 64.4848 49.5101 63.6917C52.8625 63.0056 55.2649 61.1523 56.4524 57.9356C56.6351 57.4545 56.5529 57.2941 56.014 57.303Z" fill="#014681"/>
<path d="M46.6225 62.7019C44.0831 62.7019 41.9365 61.8554 40.0547 60.1268C37.2595 57.5428 36.7754 53.2213 38.9129 50.0759C40.7124 47.4296 43.2793 46.1465 46.7413 46.1465C47.198 46.1465 47.673 46.1732 48.1572 46.2089C50.66 46.4405 52.6423 47.4474 54.0673 49.2295C54.2956 49.5146 54.4966 49.8264 54.6884 50.1918C54.5879 50.1918 54.4875 50.1918 54.387 50.1918C54.1586 50.1918 53.9303 50.1918 53.7019 50.1918H53.5649C53.5192 50.1918 53.4644 50.1918 53.4187 50.1918C53.373 50.1918 53.3365 50.1918 53.3 50.1918H52.3774V50.2007C51.875 50.1472 51.3908 49.9601 50.8153 49.4255C49.7192 48.4097 48.3399 47.8662 46.8326 47.8662C43.8182 47.8662 41.16 50.0047 40.5023 52.954C40.0821 54.8341 40.4475 56.6963 41.5071 58.1844C42.5485 59.6457 44.1653 60.5902 46.0562 60.8486C46.3668 60.8931 46.6682 60.9109 46.9697 60.9109C48.824 60.9109 50.4682 60.109 51.7105 58.5942C52.3956 58.6031 53.0899 58.6031 53.7567 58.6031C54.0764 58.6031 54.3961 58.6031 54.7158 58.6031C53.6197 60.6347 51.8201 61.8911 49.2442 62.4168C48.3307 62.6039 47.4538 62.7019 46.6225 62.7019Z" fill="#014681"/>
<path d="M96.8454 47.7868C94.1873 45.185 90.9171 44.4633 87.2997 45.0157C82.4767 45.7642 78.8502 49.8006 78.8137 54.3716C78.8045 55.8596 79.1151 57.2763 79.8642 58.5773C82.3762 62.9344 87.2632 64.8947 92.3969 63.6116C95.4022 62.8631 97.631 61.1969 98.8916 58.3723C99.1382 57.8199 99.0469 57.606 98.3801 57.6327C97.4026 57.6773 96.4161 57.6595 95.4387 57.6417C94.3882 57.6238 93.5387 57.7129 92.6344 58.5416C90.6796 60.3415 87.5007 60.1455 85.4363 58.3812C85.0709 58.0694 84.9795 57.9001 85.555 57.6951C89.8848 56.0913 94.1964 54.4428 98.5262 52.8479C99.1474 52.6162 99.2935 52.3846 99.1017 51.7519C98.6632 50.2461 97.9781 48.8917 96.8454 47.7868ZM83.8743 54.0597C83.8377 51.9479 85.1805 50.1213 87.318 49.3461C89.3276 48.6155 91.8488 49.1412 93.1094 50.6025C90.0219 51.7519 86.9526 52.9014 83.8743 54.0597Z" fill="#014681"/>
<path d="M89.3361 62.7032C85.801 62.7032 82.7775 60.9657 81.0327 57.9362C80.4299 56.8937 80.1376 55.7264 80.1467 54.3721C80.1832 50.407 83.3529 46.9319 87.5183 46.2815C88.2034 46.1746 88.8794 46.1211 89.5188 46.1211C92.0583 46.1211 94.1592 46.9587 95.9222 48.6873C96.7169 49.4625 97.3198 50.4693 97.74 51.7524C95.5111 52.5722 93.2549 53.4276 91.0717 54.2473C89.1169 54.9869 87.089 55.7443 85.0977 56.4838C84.8328 56.5818 84.0106 56.8848 83.8554 57.7491C83.7001 58.6045 84.3395 59.148 84.577 59.353C85.8741 60.4578 87.5823 61.0905 89.2813 61.0905C90.9073 61.0905 92.4236 60.5202 93.5563 59.4777C94.0679 59.0055 94.4972 58.9253 95.2188 58.9253C95.2828 58.9253 95.3559 58.9253 95.4289 58.9253C95.9222 58.9342 96.4611 58.9431 97.0001 58.9431C97.0366 58.9431 97.0732 58.9431 97.1097 58.9431C96.0135 60.6628 94.3602 61.7855 92.0948 62.3468C91.1631 62.5874 90.2313 62.7032 89.3361 62.7032ZM89.2265 47.725C88.3953 47.725 87.5914 47.8586 86.8515 48.1348C84.1842 49.1061 82.4943 51.4406 82.5491 54.0869L82.5856 55.9314L95.3285 51.1643L94.1318 49.7743C93.0174 48.4823 91.1905 47.725 89.2265 47.725Z" fill="#014681"/>
</svg>
